<svg width="24" height="24" viewBox="0 0 24 24" fill="none" xmlns="http://www.w3.org/2000/svg">
<g clip-path="url(#clip0_1852_17)">
<g clip-path="url(#clip1_1852_17)">
<path d="M23.5558 7.26978L23.5415 7.24354L23.5248 7.22207C21.6328 4.45933 16.9758 4.33288 12.4762 4.20882L12.2495 4.20166L12.0229 4.20882C7.52329 4.33288 2.86623 4.45933 0.974305 7.22207L0.957605 7.24354L0.94329 7.26978C0.0128334 8.84679 0.571108 10.9534 2.35568 12.7332C3.80385 16.0232 6.92684 19.3681 12.2471 19.3681C17.5675 19.3681 20.6928 16.0256 22.141 12.7332C23.9256 10.9487 24.4838 8.84679 23.5534 7.26978M22.8066 7.38191C22.84 7.44394 22.8687 7.50597 22.8949 7.56562C21.6591 8.21455 20.3803 8.73704 19.0753 9.13547C19.0657 9.09014 19.0538 9.04719 19.0419 9.00663C19.0276 8.96369 19.0109 8.92313 18.9942 8.88019C20.2658 8.43882 21.504 7.87577 22.6897 7.19582C22.7303 7.25547 22.7709 7.3175 22.8066 7.3843M22.3581 6.7807C21.2392 7.49166 20.0606 8.09526 18.8367 8.58435C18.7866 8.50801 18.7317 8.43166 18.6697 8.36009C19.8459 7.8376 20.9696 7.20775 22.0313 6.48009C22.1482 6.57313 22.2555 6.67334 22.3581 6.77831M21.5636 6.15323C20.5807 6.89283 19.5286 7.54653 18.4168 8.10242C18.3428 8.03562 18.2617 7.97359 18.1758 7.91394C19.2303 7.33181 20.2204 6.66379 21.1366 5.92181C21.2845 5.99339 21.4277 6.07212 21.5636 6.15323ZM8.4776 12.2704C8.96669 11.0703 9.45816 9.87267 9.94964 8.67262H14.5184C15.0027 9.87506 15.487 11.0775 15.9714 12.2775L15.7543 12.3682C15.6827 12.1773 15.6111 11.9889 15.5395 11.798H13.4782C13.4734 12.1511 12.9271 12.4231 12.2233 12.4231C11.5195 12.4231 10.9731 12.1511 10.9708 11.798H8.90943L8.69471 12.3611L8.4776 12.2704ZM16.6418 11.9531C16.0334 10.722 15.4274 9.49095 14.819 8.26227H9.67766C9.06928 9.49811 8.45852 10.7292 7.85014 11.965C7.94796 12.0199 8.04816 12.0724 8.15314 12.1225C6.28984 11.2016 5.41664 9.77247 6.1276 8.82293C7.24654 7.32227 10.6415 7.17674 12.2471 7.17674C13.8528 7.17674 17.2478 7.32466 18.3667 8.82293C19.0347 9.71521 18.288 11.0346 16.6394 11.9531M20.5616 5.67608C19.7266 6.41806 18.8152 7.09801 17.837 7.70161C17.7416 7.64674 17.639 7.59425 17.5341 7.54653C18.4502 6.92623 19.2948 6.24151 20.0606 5.5043C20.2324 5.55679 20.3994 5.61405 20.5616 5.67608ZM19.4045 5.32059C18.7198 6.04826 17.9587 6.73775 17.1261 7.37237C17.0116 7.32704 16.8947 7.28648 16.7754 7.24592C17.5388 6.60415 18.2307 5.91465 18.851 5.19176C19.0395 5.23232 19.2208 5.27526 19.4045 5.32059ZM18.1377 5.05816C17.5985 5.76912 16.9901 6.45623 16.3149 7.10755C16.1861 7.07415 16.0549 7.04075 15.9236 7.01212C16.5296 6.35603 17.0712 5.6713 17.546 4.9675C17.7464 4.99613 17.9444 5.02237 18.1377 5.05816ZM16.7945 4.87445C16.396 5.56872 15.9356 6.24867 15.4202 6.90953C15.2843 6.88328 15.1435 6.86181 15.0003 6.83795C15.4465 6.17709 15.8401 5.49714 16.1789 4.81004C16.3865 4.82674 16.5917 4.84821 16.7945 4.87207M14.7785 4.70983C14.9908 4.72176 15.1984 4.73608 15.4083 4.75039C15.1411 5.43034 14.8286 6.10552 14.4707 6.76877C14.3276 6.75445 14.1796 6.73775 14.0341 6.72344C14.318 6.0578 14.5661 5.3874 14.7785 4.70983ZM13.3589 4.65735C13.5713 4.66212 13.7836 4.66689 13.9935 4.67405C13.8504 5.34684 13.6786 6.01486 13.483 6.68288C13.3351 6.67334 13.1848 6.66618 13.0345 6.66141C13.1585 5.99577 13.2659 5.32537 13.3589 4.65735ZM12.2495 4.64542C12.3569 4.64542 12.4619 4.64542 12.5692 4.6478C12.543 5.31344 12.512 5.98146 12.4762 6.64948C12.4022 6.64948 12.3259 6.64709 12.2495 6.64709C12.1732 6.64709 12.0992 6.64709 12.0229 6.64948C11.9871 5.98146 11.9561 5.31344 11.9298 4.6478C12.0372 4.6478 12.1422 4.64542 12.2495 4.64542ZM11.1401 4.65735C11.2308 5.32537 11.3382 5.99577 11.4622 6.66141C11.3119 6.66618 11.1616 6.67334 11.0137 6.68288C10.8181 6.01724 10.6487 5.34684 10.5031 4.67405C10.7131 4.66689 10.9254 4.66212 11.1378 4.65735M9.7206 4.70983C9.93293 5.3874 10.1811 6.0578 10.4674 6.72344C10.3194 6.73775 10.1739 6.75445 10.0308 6.76877C9.67288 6.10552 9.36035 5.43034 9.09314 4.75039C9.3007 4.73608 9.51065 4.72176 9.7206 4.70983ZM8.31776 4.81242C8.65893 5.49953 9.05258 6.17709 9.49634 6.84034C9.35319 6.8642 9.2172 6.88567 9.07882 6.91191C8.56111 6.25105 8.10304 5.5711 7.70461 4.87684C7.9074 4.85298 8.11258 4.83389 8.32014 4.81481M6.95309 4.96988C7.42786 5.67369 7.96943 6.35841 8.57542 7.0145C8.44182 7.04313 8.31299 7.07653 8.18415 7.10993C7.50659 6.45861 6.89821 5.77151 6.35903 5.06054C6.55466 5.02714 6.75268 4.99851 6.95309 4.96988ZM5.64806 5.19176C6.26598 5.91465 6.96024 6.60415 7.7237 7.24592C7.60441 7.28648 7.4875 7.32704 7.3706 7.37237C6.54035 6.73775 5.77928 6.05064 5.09456 5.32059C5.27588 5.27526 5.45958 5.23232 5.64806 5.19176ZM4.43847 5.50191C5.20669 6.23912 6.05126 6.92384 6.96502 7.54415C6.86243 7.59425 6.75984 7.64435 6.66202 7.69922C5.68385 7.09562 4.77248 6.41567 3.93745 5.67369C4.09969 5.61166 4.26669 5.5544 4.43847 5.50191ZM3.36009 5.9242C4.27862 6.66618 5.26872 7.3342 6.32324 7.91633C6.23735 7.97836 6.15623 8.03801 6.08227 8.10481C4.9705 7.54892 3.91837 6.89521 2.93781 6.15562C3.0738 6.0745 3.21456 5.99816 3.36248 5.9242M2.46542 6.48247C3.5271 7.20775 4.6508 7.8376 5.827 8.36009C5.76497 8.43166 5.71009 8.50801 5.65999 8.58435C4.43847 8.09526 3.2575 7.49166 2.13857 6.7807C2.23877 6.67334 2.34852 6.57313 2.46304 6.48247M1.69243 7.38191C1.72821 7.3175 1.76877 7.25547 1.80695 7.19344C2.99268 7.87577 4.2309 8.43643 5.50253 8.8778C5.48583 8.92075 5.46913 8.9613 5.45481 9.00425C5.4405 9.04719 5.42857 9.09014 5.41903 9.13547C4.114 8.73704 2.83522 8.21455 1.59938 7.56562C1.62801 7.50359 1.65664 7.44156 1.69004 7.38191M1.43238 8.07141C2.7207 8.66785 4.04004 9.13308 5.3737 9.46709C5.36892 9.56014 5.3737 9.65557 5.38324 9.74861C4.03527 9.46948 2.68969 9.05912 1.36796 8.51278C1.3775 8.36009 1.39898 8.21455 1.42999 8.07141M1.39659 9.10207C2.74694 9.57207 4.10684 9.90608 5.46197 10.1089C5.49299 10.2067 5.52877 10.3069 5.5741 10.4071C4.22852 10.2687 2.86623 10.0039 1.50395 9.60547C1.45385 9.43369 1.41806 9.26669 1.39659 9.10207ZM2.03598 10.796C1.92623 10.6147 1.82842 10.4333 1.7473 10.2544C3.1072 10.555 4.45755 10.7268 5.78167 10.7793C5.84608 10.8819 5.92004 10.9821 6.00116 11.0823C4.70806 11.1014 3.38156 11.0107 2.03837 10.7936M2.50837 11.4712C3.81816 11.5714 5.09694 11.5642 6.33517 11.4545C6.43537 11.5523 6.54035 11.6501 6.65486 11.7455C5.4739 11.9292 4.24522 12.0247 2.98314 12.0175C2.80898 11.8386 2.6539 11.6572 2.50837 11.4735M4.34781 13.1794C4.11639 13.0148 3.89451 12.8454 3.68694 12.6736C4.87507 12.5615 6.02263 12.3634 7.11532 12.0891C7.24892 12.1797 7.38969 12.2656 7.53522 12.3515C6.52365 12.6927 5.4572 12.9742 4.34781 13.1794ZM5.26634 13.7663C6.25882 13.449 7.20837 13.072 8.10781 12.6473C8.27004 12.7237 8.43705 12.7953 8.60882 12.8621C7.81436 13.3464 6.97456 13.7925 6.08705 14.1957C5.80314 14.0597 5.52877 13.9166 5.26872 13.7663M8.13882 14.9711C7.81436 14.8781 7.49705 14.7731 7.18928 14.6586C7.9241 14.1647 8.61837 13.6422 9.27207 13.0935C9.45578 13.1507 9.64425 13.2008 9.8375 13.2462C9.30547 13.8379 8.74004 14.4128 8.13882 14.9711ZM10.4125 15.4292C10.0618 15.3862 9.71583 15.3314 9.37705 15.2669C9.79933 14.6514 10.1978 14.0263 10.5699 13.3917C10.768 13.4227 10.9708 13.449 11.1759 13.4728C10.9374 14.1265 10.6821 14.7826 10.4125 15.4316M12.2495 15.5437C12.0706 15.5437 11.8941 15.5389 11.7199 15.5318C11.7986 14.8614 11.8726 14.1909 11.9394 13.5205C12.042 13.5229 12.1469 13.5253 12.2495 13.5253C12.3521 13.5253 12.4571 13.5253 12.5597 13.5205C12.6289 14.1909 12.7004 14.8614 12.7792 15.5318C12.6026 15.5389 12.4261 15.5437 12.2471 15.5437M14.0866 15.4292C13.8146 14.7802 13.5617 14.1265 13.3231 13.4704C13.5283 13.449 13.7311 13.4227 13.9291 13.3893C14.3013 14.0216 14.6974 14.649 15.122 15.2646C14.7832 15.3314 14.4373 15.3862 14.0866 15.4268M16.3602 14.9711C15.759 14.4152 15.1936 13.8402 14.6616 13.2462C14.8548 13.2008 15.0433 13.1484 15.227 13.0935C15.8807 13.6422 16.5774 14.1647 17.3098 14.6586C17.002 14.7707 16.6847 14.8757 16.3602 14.9711ZM18.412 14.1957C17.5269 13.7925 16.6847 13.3488 15.8902 12.8621C16.062 12.7953 16.229 12.7237 16.3913 12.6473C17.2907 13.072 18.2379 13.449 19.2327 13.7639C18.9703 13.9142 18.6983 14.0573 18.412 14.1957ZM20.1513 13.1794C19.0419 12.9742 17.9778 12.6927 16.9639 12.3491C17.1094 12.2632 17.2501 12.1773 17.3837 12.0891C18.4788 12.3634 19.624 12.5615 20.8121 12.6736C20.6046 12.8454 20.3851 13.0148 20.1513 13.1794ZM21.5159 12.0151C20.2515 12.0223 19.0228 11.9268 17.8442 11.7431C17.9587 11.6477 18.0637 11.5499 18.1639 11.4521C19.4021 11.5618 20.6809 11.5714 21.9907 11.4688C21.8452 11.6501 21.6877 11.8314 21.5159 12.0127M22.4631 10.7936C21.1175 11.0083 19.791 11.1014 18.5003 11.0823C18.5814 10.9821 18.6554 10.8819 18.7198 10.7793C20.0439 10.7268 21.3919 10.555 22.7542 10.2544C22.6707 10.4333 22.5752 10.6147 22.4631 10.7936ZM22.9951 9.60547C21.6328 10.0039 20.2705 10.2687 18.925 10.4071C18.9703 10.3069 19.0085 10.2067 19.0371 10.1089C20.3922 9.90369 21.7521 9.56968 23.1025 9.10207C23.0786 9.26669 23.0452 9.43608 22.9951 9.60547ZM19.1134 9.74861C19.1254 9.65557 19.1278 9.56014 19.123 9.46709C20.4566 9.13308 21.776 8.66785 23.0667 8.07141C23.0977 8.21455 23.1192 8.36247 23.1287 8.51278C21.807 9.05912 20.4638 9.46709 19.1158 9.74861" fill="#2F1A45"/>
</g>
</g>
<defs>
<clipPath id="clip0_1852_17">
<rect width="24" height="24" fill="white"/>
</clipPath>
<clipPath id="clip1_1852_17">
<rect width="23.5" height="15.1664" fill="white" transform="translate(0.5 4.2019)"/>
</clipPath>
</defs>
</svg>
